<mxfile host="drawio-plugin" modified="2024-08-27T14:15:55.076Z" agent="5.0 (Macintosh; Intel Mac OS X 10_15_7) AppleWebKit/537.36 (KHTML, like Gecko) Chrome/104.0.5112.102 Safari/537.36" etag="kuaCfCxIyNDohEo_nrwh" version="20.5.3" type="embed"><diagram id="SXikauRLZCJnNX_fj6It" name="Page-1"><mxGraphModel dx="2358" dy="1021" grid="1" gridSize="10" guides="1" tooltips="1" connect="1" arrows="1" fold="1" page="1" pageScale="1" pageWidth="850" pageHeight="1100" math="0" shadow="0"><root><mxCell id="0"/><mxCell id="1" parent="0"/><mxCell id="55" value="" style="rounded=0;whiteSpace=wrap;html=1;" parent="1" vertex="1"><mxGeometry x="-580" y="440" width="860" height="270" as="geometry"/></mxCell><mxCell id="56" value="物料" style="text;html=1;align=center;verticalAlign=middle;resizable=0;points=[];autosize=1;" parent="1" vertex="1"><mxGeometry x="-650" y="565" width="50" height="30" as="geometry"/></mxCell><mxCell id="57" value="" style="rounded=0;whiteSpace=wrap;html=1;" parent="1" vertex="1"><mxGeometry x="-565" y="500" width="280" height="160" as="geometry"/></mxCell><mxCell id="58" value="组件" style="text;html=1;align=center;verticalAlign=middle;resizable=0;points=[];autosize=1;strokeColor=none;fillColor=none;" parent="1" vertex="1"><mxGeometry x="-450" y="670" width="50" height="30" as="geometry"/></mxCell><mxCell id="59" value="页面" style="text;html=1;align=center;verticalAlign=middle;resizable=0;points=[];autosize=1;strokeColor=none;fillColor=none;" parent="1" vertex="1"><mxGeometry x="-105" y="670" width="50" height="30" as="geometry"/></mxCell><mxCell id="60" value="" style="rounded=0;whiteSpace=wrap;html=1;" parent="1" vertex="1"><mxGeometry x="-220" y="500" width="280" height="160" as="geometry"/></mxCell><mxCell id="61" value="容器组件" style="text;html=1;align=center;verticalAlign=middle;resizable=0;points=[];autosize=1;strokeColor=none;fillColor=none;" parent="1" vertex="1"><mxGeometry x="-550" y="520" width="70" height="30" as="geometry"/></mxCell><mxCell id="62" value="表单项组件" style="text;html=1;align=center;verticalAlign=middle;resizable=0;points=[];autosize=1;strokeColor=none;fillColor=none;" parent="1" vertex="1"><mxGeometry x="-550" y="565" width="80" height="30" as="geometry"/></mxCell><mxCell id="63" value="列表CRUD页面" style="text;html=1;align=center;verticalAlign=middle;resizable=0;points=[];autosize=1;strokeColor=none;fillColor=none;" parent="1" vertex="1"><mxGeometry x="-205" y="525" width="110" height="30" as="geometry"/></mxCell><mxCell id="64" value="可视化图页面" style="text;html=1;align=center;verticalAlign=middle;resizable=0;points=[];autosize=1;strokeColor=none;fillColor=none;" parent="1" vertex="1"><mxGeometry x="-200" y="565" width="100" height="30" as="geometry"/></mxCell><mxCell id="65" value="可视化图" style="text;html=1;align=center;verticalAlign=middle;resizable=0;points=[];autosize=1;strokeColor=none;fillColor=none;" parent="1" vertex="1"><mxGeometry x="-550" y="610" width="70" height="30" as="geometry"/></mxCell><mxCell id="67" value="渲染引擎" style="text;html=1;align=center;verticalAlign=middle;resizable=0;points=[];autosize=1;strokeColor=none;fillColor=none;" vertex="1" parent="1"><mxGeometry x="-690" y="200" width="70" height="30" as="geometry"/></mxCell></root></mxGraphModel></diagram></mxfile>